<mxfile host="app.diagrams.net" agent="Mozilla/5.0 (Windows NT 10.0; Win64; x64) AppleWebKit/537.36 (KHTML, like Gecko) Chrome/129.0.0.0 Safari/537.36" version="24.7.17">
  <diagram id="C5RBs43oDa-KdzZeNtuy" name="Page-1">
    <mxGraphModel dx="2868" dy="1544" grid="1" gridSize="10" guides="1" tooltips="1" connect="1" arrows="1" fold="1" page="1" pageScale="1" pageWidth="827" pageHeight="1169" math="0" shadow="0">
      <root>
        <mxCell id="WIyWlLk6GJQsqaUBKTNV-0" />
        <mxCell id="WIyWlLk6GJQsqaUBKTNV-1" parent="WIyWlLk6GJQsqaUBKTNV-0" />
        <mxCell id="zkfFHV4jXpPFQw0GAbJ--0" value="Especie" style="swimlane;fontStyle=2;align=center;verticalAlign=top;childLayout=stackLayout;horizontal=1;startSize=26;horizontalStack=0;resizeParent=1;resizeLast=0;collapsible=1;marginBottom=0;rounded=0;shadow=0;strokeWidth=1;" parent="WIyWlLk6GJQsqaUBKTNV-1" vertex="1">
          <mxGeometry x="1291" y="340" width="160" height="120" as="geometry">
            <mxRectangle x="230" y="140" width="160" height="26" as="alternateBounds" />
          </mxGeometry>
        </mxCell>
        <mxCell id="zkfFHV4jXpPFQw0GAbJ--1" value="- codigo: IntegerÂ " style="text;align=left;verticalAlign=top;spacingLeft=4;spacingRight=4;overflow=hidden;rotatable=0;points=[[0,0.5],[1,0.5]];portConstraint=eastwest;" parent="zkfFHV4jXpPFQw0GAbJ--0" vertex="1">
          <mxGeometry y="26" width="160" height="26" as="geometry" />
        </mxCell>
        <mxCell id="zkfFHV4jXpPFQw0GAbJ--2" value="- nome: String" style="text;align=left;verticalAlign=top;spacingLeft=4;spacingRight=4;overflow=hidden;rotatable=0;points=[[0,0.5],[1,0.5]];portConstraint=eastwest;rounded=0;shadow=0;html=0;" parent="zkfFHV4jXpPFQw0GAbJ--0" vertex="1">
          <mxGeometry y="52" width="160" height="26" as="geometry" />
        </mxCell>
        <mxCell id="zkfFHV4jXpPFQw0GAbJ--4" value="" style="line;html=1;strokeWidth=1;align=left;verticalAlign=middle;spacingTop=-1;spacingLeft=3;spacingRight=3;rotatable=0;labelPosition=right;points=[];portConstraint=eastwest;" parent="zkfFHV4jXpPFQw0GAbJ--0" vertex="1">
          <mxGeometry y="78" width="160" height="8" as="geometry" />
        </mxCell>
        <mxCell id="zkfFHV4jXpPFQw0GAbJ--6" value="Pet" style="swimlane;fontStyle=0;align=center;verticalAlign=top;childLayout=stackLayout;horizontal=1;startSize=26;horizontalStack=0;resizeParent=1;resizeLast=0;collapsible=1;marginBottom=0;rounded=0;shadow=0;strokeWidth=1;" parent="WIyWlLk6GJQsqaUBKTNV-1" vertex="1">
          <mxGeometry x="1541" y="330" width="160" height="160" as="geometry">
            <mxRectangle x="130" y="380" width="160" height="26" as="alternateBounds" />
          </mxGeometry>
        </mxCell>
        <mxCell id="zkfFHV4jXpPFQw0GAbJ--7" value="- codigo: Integer" style="text;align=left;verticalAlign=top;spacingLeft=4;spacingRight=4;overflow=hidden;rotatable=0;points=[[0,0.5],[1,0.5]];portConstraint=eastwest;" parent="zkfFHV4jXpPFQw0GAbJ--6" vertex="1">
          <mxGeometry y="26" width="160" height="26" as="geometry" />
        </mxCell>
        <mxCell id="zkfFHV4jXpPFQw0GAbJ--8" value="- nome: String&#xa;&#xa;-dataNascimento: Date&#xa;&#xa;- genero: GeneroEnum" style="text;align=left;verticalAlign=top;spacingLeft=4;spacingRight=4;overflow=hidden;rotatable=0;points=[[0,0.5],[1,0.5]];portConstraint=eastwest;rounded=0;shadow=0;html=0;" parent="zkfFHV4jXpPFQw0GAbJ--6" vertex="1">
          <mxGeometry y="52" width="160" height="88" as="geometry" />
        </mxCell>
        <mxCell id="zkfFHV4jXpPFQw0GAbJ--9" value="" style="line;html=1;strokeWidth=1;align=left;verticalAlign=middle;spacingTop=-1;spacingLeft=3;spacingRight=3;rotatable=0;labelPosition=right;points=[];portConstraint=eastwest;" parent="zkfFHV4jXpPFQw0GAbJ--6" vertex="1">
          <mxGeometry y="140" width="160" height="8" as="geometry" />
        </mxCell>
        <mxCell id="zkfFHV4jXpPFQw0GAbJ--13" value="pet: Pet" style="swimlane;fontStyle=0;align=center;verticalAlign=top;childLayout=stackLayout;horizontal=1;startSize=26;horizontalStack=0;resizeParent=1;resizeLast=0;collapsible=1;marginBottom=0;rounded=0;shadow=0;strokeWidth=1;" parent="WIyWlLk6GJQsqaUBKTNV-1" vertex="1">
          <mxGeometry x="531" y="300" width="170" height="158" as="geometry">
            <mxRectangle x="340" y="380" width="170" height="26" as="alternateBounds" />
          </mxGeometry>
        </mxCell>
        <mxCell id="zkfFHV4jXpPFQw0GAbJ--14" value="- codigo: 1&#xa;&#xa;- nome: Diana&#xa;&#xa;- dataNascimento: 03/05/2020&#xa;&#xa;-genero: FEMEA" style="text;align=left;verticalAlign=top;spacingLeft=4;spacingRight=4;overflow=hidden;rotatable=0;points=[[0,0.5],[1,0.5]];portConstraint=eastwest;" parent="zkfFHV4jXpPFQw0GAbJ--13" vertex="1">
          <mxGeometry y="26" width="170" height="114" as="geometry" />
        </mxCell>
        <mxCell id="zkfFHV4jXpPFQw0GAbJ--15" value="" style="line;html=1;strokeWidth=1;align=left;verticalAlign=middle;spacingTop=-1;spacingLeft=3;spacingRight=3;rotatable=0;labelPosition=right;points=[];portConstraint=eastwest;" parent="zkfFHV4jXpPFQw0GAbJ--13" vertex="1">
          <mxGeometry y="140" width="170" height="8" as="geometry" />
        </mxCell>
        <mxCell id="zkfFHV4jXpPFQw0GAbJ--17" value="especie: Especie" style="swimlane;fontStyle=0;align=center;verticalAlign=top;childLayout=stackLayout;horizontal=1;startSize=26;horizontalStack=0;resizeParent=1;resizeLast=0;collapsible=1;marginBottom=0;rounded=0;shadow=0;strokeWidth=1;" parent="WIyWlLk6GJQsqaUBKTNV-1" vertex="1">
          <mxGeometry x="321" y="330" width="160" height="120" as="geometry">
            <mxRectangle x="550" y="140" width="160" height="26" as="alternateBounds" />
          </mxGeometry>
        </mxCell>
        <mxCell id="zkfFHV4jXpPFQw0GAbJ--18" value="- codigo: 1" style="text;align=left;verticalAlign=top;spacingLeft=4;spacingRight=4;overflow=hidden;rotatable=0;points=[[0,0.5],[1,0.5]];portConstraint=eastwest;" parent="zkfFHV4jXpPFQw0GAbJ--17" vertex="1">
          <mxGeometry y="26" width="160" height="26" as="geometry" />
        </mxCell>
        <mxCell id="zkfFHV4jXpPFQw0GAbJ--19" value="- nome: Cachorro" style="text;align=left;verticalAlign=top;spacingLeft=4;spacingRight=4;overflow=hidden;rotatable=0;points=[[0,0.5],[1,0.5]];portConstraint=eastwest;rounded=0;shadow=0;html=0;" parent="zkfFHV4jXpPFQw0GAbJ--17" vertex="1">
          <mxGeometry y="52" width="160" height="26" as="geometry" />
        </mxCell>
        <mxCell id="zkfFHV4jXpPFQw0GAbJ--23" value="" style="line;html=1;strokeWidth=1;align=left;verticalAlign=middle;spacingTop=-1;spacingLeft=3;spacingRight=3;rotatable=0;labelPosition=right;points=[];portConstraint=eastwest;" parent="zkfFHV4jXpPFQw0GAbJ--17" vertex="1">
          <mxGeometry y="78" width="160" height="8" as="geometry" />
        </mxCell>
        <mxCell id="akVVTmRAwVwX4ofUZlia-5" value="" style="endArrow=none;html=1;rounded=0;entryX=0.038;entryY=0.923;entryDx=0;entryDy=0;entryPerimeter=0;" edge="1" parent="WIyWlLk6GJQsqaUBKTNV-1" target="zkfFHV4jXpPFQw0GAbJ--7">
          <mxGeometry width="50" height="50" relative="1" as="geometry">
            <mxPoint x="1451" y="380" as="sourcePoint" />
            <mxPoint x="1551" y="380" as="targetPoint" />
          </mxGeometry>
        </mxCell>
        <mxCell id="akVVTmRAwVwX4ofUZlia-6" value="0*.." style="resizable=0;align=left;verticalAlign=bottom;labelBackgroundColor=none;fontSize=12;" connectable="0" vertex="1" parent="WIyWlLk6GJQsqaUBKTNV-1">
          <mxGeometry x="1521" y="380" as="geometry" />
        </mxCell>
        <mxCell id="akVVTmRAwVwX4ofUZlia-7" value="Cliente" style="swimlane;fontStyle=0;childLayout=stackLayout;horizontal=1;startSize=30;horizontalStack=0;resizeParent=1;resizeParentMax=0;resizeLast=0;collapsible=1;marginBottom=0;whiteSpace=wrap;html=1;" vertex="1" parent="WIyWlLk6GJQsqaUBKTNV-1">
          <mxGeometry x="1781" y="330" width="170" height="90" as="geometry" />
        </mxCell>
        <mxCell id="akVVTmRAwVwX4ofUZlia-10" value="&lt;div&gt;- endereco: String&lt;/div&gt;" style="text;strokeColor=none;fillColor=none;align=left;verticalAlign=middle;spacingLeft=4;spacingRight=4;overflow=hidden;points=[[0,0.5],[1,0.5]];portConstraint=eastwest;rotatable=0;whiteSpace=wrap;html=1;" vertex="1" parent="akVVTmRAwVwX4ofUZlia-7">
          <mxGeometry y="30" width="170" height="60" as="geometry" />
        </mxCell>
        <mxCell id="akVVTmRAwVwX4ofUZlia-12" value="cliente: Cliente" style="swimlane;fontStyle=0;childLayout=stackLayout;horizontal=1;startSize=30;horizontalStack=0;resizeParent=1;resizeParentMax=0;resizeLast=0;collapsible=1;marginBottom=0;whiteSpace=wrap;html=1;" vertex="1" parent="WIyWlLk6GJQsqaUBKTNV-1">
          <mxGeometry x="771" y="290" width="180" height="170" as="geometry" />
        </mxCell>
        <mxCell id="akVVTmRAwVwX4ofUZlia-13" value="- codigo: 1" style="text;strokeColor=none;fillColor=none;align=left;verticalAlign=middle;spacingLeft=4;spacingRight=4;overflow=hidden;points=[[0,0.5],[1,0.5]];portConstraint=eastwest;rotatable=0;whiteSpace=wrap;html=1;" vertex="1" parent="akVVTmRAwVwX4ofUZlia-12">
          <mxGeometry y="30" width="180" height="30" as="geometry" />
        </mxCell>
        <mxCell id="akVVTmRAwVwX4ofUZlia-14" value="- telefone: 34989434222" style="text;strokeColor=none;fillColor=none;align=left;verticalAlign=middle;spacingLeft=4;spacingRight=4;overflow=hidden;points=[[0,0.5],[1,0.5]];portConstraint=eastwest;rotatable=0;whiteSpace=wrap;html=1;" vertex="1" parent="akVVTmRAwVwX4ofUZlia-12">
          <mxGeometry y="60" width="180" height="30" as="geometry" />
        </mxCell>
        <mxCell id="akVVTmRAwVwX4ofUZlia-15" value="- nome: Carlos&lt;div&gt;&lt;br&gt;&lt;/div&gt;&lt;div&gt;- endereco: &quot;Rua das Couves&quot;&lt;/div&gt;" style="text;strokeColor=none;fillColor=none;align=left;verticalAlign=middle;spacingLeft=4;spacingRight=4;overflow=hidden;points=[[0,0.5],[1,0.5]];portConstraint=eastwest;rotatable=0;whiteSpace=wrap;html=1;" vertex="1" parent="akVVTmRAwVwX4ofUZlia-12">
          <mxGeometry y="90" width="180" height="80" as="geometry" />
        </mxCell>
        <mxCell id="akVVTmRAwVwX4ofUZlia-21" value="1..*" style="resizable=0;align=left;verticalAlign=bottom;labelBackgroundColor=none;fontSize=12;" connectable="0" vertex="1" parent="WIyWlLk6GJQsqaUBKTNV-1">
          <mxGeometry x="1701" y="400" as="geometry" />
        </mxCell>
        <mxCell id="akVVTmRAwVwX4ofUZlia-22" value="1" style="resizable=0;align=left;verticalAlign=bottom;labelBackgroundColor=none;fontSize=12;" connectable="0" vertex="1" parent="WIyWlLk6GJQsqaUBKTNV-1">
          <mxGeometry x="1481" y="400" as="geometry">
            <mxPoint x="285" y="16" as="offset" />
          </mxGeometry>
        </mxCell>
        <mxCell id="akVVTmRAwVwX4ofUZlia-23" value="" style="endArrow=none;html=1;rounded=0;entryX=1.025;entryY=0.261;entryDx=0;entryDy=0;entryPerimeter=0;startArrow=diamond;startFill=1;exitX=0;exitY=0.5;exitDx=0;exitDy=0;" edge="1" parent="WIyWlLk6GJQsqaUBKTNV-1" source="akVVTmRAwVwX4ofUZlia-10" target="zkfFHV4jXpPFQw0GAbJ--8">
          <mxGeometry width="50" height="50" relative="1" as="geometry">
            <mxPoint x="1781" y="375" as="sourcePoint" />
            <mxPoint x="1751" y="340" as="targetPoint" />
          </mxGeometry>
        </mxCell>
        <mxCell id="akVVTmRAwVwX4ofUZlia-24" value="Tratamento" style="swimlane;fontStyle=0;childLayout=stackLayout;horizontal=1;startSize=30;horizontalStack=0;resizeParent=1;resizeParentMax=0;resizeLast=0;collapsible=1;marginBottom=0;whiteSpace=wrap;html=1;" vertex="1" parent="WIyWlLk6GJQsqaUBKTNV-1">
          <mxGeometry x="1551" y="580" width="140" height="90" as="geometry" />
        </mxCell>
        <mxCell id="akVVTmRAwVwX4ofUZlia-25" value="- codigo: Integer" style="text;strokeColor=none;fillColor=none;align=left;verticalAlign=middle;spacingLeft=4;spacingRight=4;overflow=hidden;points=[[0,0.5],[1,0.5]];portConstraint=eastwest;rotatable=0;whiteSpace=wrap;html=1;" vertex="1" parent="akVVTmRAwVwX4ofUZlia-24">
          <mxGeometry y="30" width="140" height="30" as="geometry" />
        </mxCell>
        <mxCell id="akVVTmRAwVwX4ofUZlia-26" value="-&amp;nbsp; descricao: String" style="text;strokeColor=none;fillColor=none;align=left;verticalAlign=middle;spacingLeft=4;spacingRight=4;overflow=hidden;points=[[0,0.5],[1,0.5]];portConstraint=eastwest;rotatable=0;whiteSpace=wrap;html=1;" vertex="1" parent="akVVTmRAwVwX4ofUZlia-24">
          <mxGeometry y="60" width="140" height="30" as="geometry" />
        </mxCell>
        <mxCell id="akVVTmRAwVwX4ofUZlia-28" value="tratamento: Tratamento" style="swimlane;fontStyle=0;childLayout=stackLayout;horizontal=1;startSize=30;horizontalStack=0;resizeParent=1;resizeParentMax=0;resizeLast=0;collapsible=1;marginBottom=0;whiteSpace=wrap;html=1;" vertex="1" parent="WIyWlLk6GJQsqaUBKTNV-1">
          <mxGeometry x="541" y="530" width="160" height="90" as="geometry" />
        </mxCell>
        <mxCell id="akVVTmRAwVwX4ofUZlia-29" value="- codigo: 1" style="text;strokeColor=none;fillColor=none;align=left;verticalAlign=middle;spacingLeft=4;spacingRight=4;overflow=hidden;points=[[0,0.5],[1,0.5]];portConstraint=eastwest;rotatable=0;whiteSpace=wrap;html=1;" vertex="1" parent="akVVTmRAwVwX4ofUZlia-28">
          <mxGeometry y="30" width="160" height="30" as="geometry" />
        </mxCell>
        <mxCell id="akVVTmRAwVwX4ofUZlia-30" value="&amp;nbsp;- descricao: &quot;Coceira nas costas&quot;" style="text;strokeColor=none;fillColor=none;align=left;verticalAlign=middle;spacingLeft=4;spacingRight=4;overflow=hidden;points=[[0,0.5],[1,0.5]];portConstraint=eastwest;rotatable=0;whiteSpace=wrap;html=1;" vertex="1" parent="akVVTmRAwVwX4ofUZlia-28">
          <mxGeometry y="60" width="160" height="30" as="geometry" />
        </mxCell>
        <mxCell id="akVVTmRAwVwX4ofUZlia-36" value="" style="endArrow=none;html=1;rounded=0;exitX=0.571;exitY=0;exitDx=0;exitDy=0;exitPerimeter=0;" edge="1" parent="WIyWlLk6GJQsqaUBKTNV-1" source="akVVTmRAwVwX4ofUZlia-24">
          <mxGeometry width="50" height="50" relative="1" as="geometry">
            <mxPoint x="1581" y="540" as="sourcePoint" />
            <mxPoint x="1631" y="490" as="targetPoint" />
          </mxGeometry>
        </mxCell>
        <mxCell id="akVVTmRAwVwX4ofUZlia-37" value="1" style="resizable=0;align=left;verticalAlign=bottom;labelBackgroundColor=none;fontSize=12;" connectable="0" vertex="1" parent="WIyWlLk6GJQsqaUBKTNV-1">
          <mxGeometry x="1691" y="625" as="geometry" />
        </mxCell>
        <mxCell id="akVVTmRAwVwX4ofUZlia-38" value="0..*" style="resizable=0;align=left;verticalAlign=bottom;labelBackgroundColor=none;fontSize=12;" connectable="0" vertex="1" parent="WIyWlLk6GJQsqaUBKTNV-1">
          <mxGeometry x="1851" y="520" as="geometry">
            <mxPoint x="-76" y="115" as="offset" />
          </mxGeometry>
        </mxCell>
        <mxCell id="akVVTmRAwVwX4ofUZlia-39" value="Consulta" style="swimlane;fontStyle=0;childLayout=stackLayout;horizontal=1;startSize=30;horizontalStack=0;resizeParent=1;resizeParentMax=0;resizeLast=0;collapsible=1;marginBottom=0;whiteSpace=wrap;html=1;" vertex="1" parent="WIyWlLk6GJQsqaUBKTNV-1">
          <mxGeometry x="1791" y="740" width="140" height="120" as="geometry" />
        </mxCell>
        <mxCell id="akVVTmRAwVwX4ofUZlia-40" value="- codigo: Integer" style="text;strokeColor=none;fillColor=none;align=left;verticalAlign=middle;spacingLeft=4;spacingRight=4;overflow=hidden;points=[[0,0.5],[1,0.5]];portConstraint=eastwest;rotatable=0;whiteSpace=wrap;html=1;" vertex="1" parent="akVVTmRAwVwX4ofUZlia-39">
          <mxGeometry y="30" width="140" height="30" as="geometry" />
        </mxCell>
        <mxCell id="akVVTmRAwVwX4ofUZlia-41" value="- data: Date" style="text;strokeColor=none;fillColor=none;align=left;verticalAlign=middle;spacingLeft=4;spacingRight=4;overflow=hidden;points=[[0,0.5],[1,0.5]];portConstraint=eastwest;rotatable=0;whiteSpace=wrap;html=1;" vertex="1" parent="akVVTmRAwVwX4ofUZlia-39">
          <mxGeometry y="60" width="140" height="30" as="geometry" />
        </mxCell>
        <mxCell id="akVVTmRAwVwX4ofUZlia-42" value="- resumo: String" style="text;strokeColor=none;fillColor=none;align=left;verticalAlign=middle;spacingLeft=4;spacingRight=4;overflow=hidden;points=[[0,0.5],[1,0.5]];portConstraint=eastwest;rotatable=0;whiteSpace=wrap;html=1;" vertex="1" parent="akVVTmRAwVwX4ofUZlia-39">
          <mxGeometry y="90" width="140" height="30" as="geometry" />
        </mxCell>
        <mxCell id="akVVTmRAwVwX4ofUZlia-43" value="Veterinario" style="swimlane;fontStyle=0;childLayout=stackLayout;horizontal=1;startSize=30;horizontalStack=0;resizeParent=1;resizeParentMax=0;resizeLast=0;collapsible=1;marginBottom=0;whiteSpace=wrap;html=1;" vertex="1" parent="WIyWlLk6GJQsqaUBKTNV-1">
          <mxGeometry x="1801" y="540" width="140" height="90" as="geometry" />
        </mxCell>
        <mxCell id="akVVTmRAwVwX4ofUZlia-46" value="&lt;div&gt;&lt;br&gt;&lt;/div&gt;&lt;div&gt;- crmv: String&amp;nbsp;&lt;/div&gt;" style="text;strokeColor=none;fillColor=none;align=left;verticalAlign=middle;spacingLeft=4;spacingRight=4;overflow=hidden;points=[[0,0.5],[1,0.5]];portConstraint=eastwest;rotatable=0;whiteSpace=wrap;html=1;" vertex="1" parent="akVVTmRAwVwX4ofUZlia-43">
          <mxGeometry y="30" width="140" height="60" as="geometry" />
        </mxCell>
        <mxCell id="akVVTmRAwVwX4ofUZlia-47" value="consulta: Consulta" style="swimlane;fontStyle=0;childLayout=stackLayout;horizontal=1;startSize=30;horizontalStack=0;resizeParent=1;resizeParentMax=0;resizeLast=0;collapsible=1;marginBottom=0;whiteSpace=wrap;html=1;" vertex="1" parent="WIyWlLk6GJQsqaUBKTNV-1">
          <mxGeometry x="791" y="700" width="140" height="150" as="geometry" />
        </mxCell>
        <mxCell id="akVVTmRAwVwX4ofUZlia-48" value="- codigo: 1" style="text;strokeColor=none;fillColor=none;align=left;verticalAlign=middle;spacingLeft=4;spacingRight=4;overflow=hidden;points=[[0,0.5],[1,0.5]];portConstraint=eastwest;rotatable=0;whiteSpace=wrap;html=1;" vertex="1" parent="akVVTmRAwVwX4ofUZlia-47">
          <mxGeometry y="30" width="140" height="30" as="geometry" />
        </mxCell>
        <mxCell id="akVVTmRAwVwX4ofUZlia-49" value="- data: 11/09/2023" style="text;strokeColor=none;fillColor=none;align=left;verticalAlign=middle;spacingLeft=4;spacingRight=4;overflow=hidden;points=[[0,0.5],[1,0.5]];portConstraint=eastwest;rotatable=0;whiteSpace=wrap;html=1;" vertex="1" parent="akVVTmRAwVwX4ofUZlia-47">
          <mxGeometry y="60" width="140" height="30" as="geometry" />
        </mxCell>
        <mxCell id="akVVTmRAwVwX4ofUZlia-50" value="- resumo: &quot;Analisou a area de coceira e passou uma pomada&quot;" style="text;strokeColor=none;fillColor=none;align=left;verticalAlign=middle;spacingLeft=4;spacingRight=4;overflow=hidden;points=[[0,0.5],[1,0.5]];portConstraint=eastwest;rotatable=0;whiteSpace=wrap;html=1;" vertex="1" parent="akVVTmRAwVwX4ofUZlia-47">
          <mxGeometry y="90" width="140" height="60" as="geometry" />
        </mxCell>
        <mxCell id="akVVTmRAwVwX4ofUZlia-51" value="veterinario: Veterinario" style="swimlane;fontStyle=0;childLayout=stackLayout;horizontal=1;startSize=30;horizontalStack=0;resizeParent=1;resizeParentMax=0;resizeLast=0;collapsible=1;marginBottom=0;whiteSpace=wrap;html=1;" vertex="1" parent="WIyWlLk6GJQsqaUBKTNV-1">
          <mxGeometry x="781" y="500" width="140" height="150" as="geometry" />
        </mxCell>
        <mxCell id="akVVTmRAwVwX4ofUZlia-52" value="- codigo: 1" style="text;strokeColor=none;fillColor=none;align=left;verticalAlign=middle;spacingLeft=4;spacingRight=4;overflow=hidden;points=[[0,0.5],[1,0.5]];portConstraint=eastwest;rotatable=0;whiteSpace=wrap;html=1;" vertex="1" parent="akVVTmRAwVwX4ofUZlia-51">
          <mxGeometry y="30" width="140" height="30" as="geometry" />
        </mxCell>
        <mxCell id="akVVTmRAwVwX4ofUZlia-53" value="- telefone: 34948848" style="text;strokeColor=none;fillColor=none;align=left;verticalAlign=middle;spacingLeft=4;spacingRight=4;overflow=hidden;points=[[0,0.5],[1,0.5]];portConstraint=eastwest;rotatable=0;whiteSpace=wrap;html=1;" vertex="1" parent="akVVTmRAwVwX4ofUZlia-51">
          <mxGeometry y="60" width="140" height="30" as="geometry" />
        </mxCell>
        <mxCell id="akVVTmRAwVwX4ofUZlia-54" value="- nome: Fernanda&lt;div&gt;&lt;br&gt;&lt;/div&gt;&lt;div&gt;-crmv: 9812345&lt;/div&gt;" style="text;strokeColor=none;fillColor=none;align=left;verticalAlign=middle;spacingLeft=4;spacingRight=4;overflow=hidden;points=[[0,0.5],[1,0.5]];portConstraint=eastwest;rotatable=0;whiteSpace=wrap;html=1;" vertex="1" parent="akVVTmRAwVwX4ofUZlia-51">
          <mxGeometry y="90" width="140" height="60" as="geometry" />
        </mxCell>
        <mxCell id="akVVTmRAwVwX4ofUZlia-55" value="" style="endArrow=none;html=1;rounded=0;entryX=0.014;entryY=0.033;entryDx=0;entryDy=0;entryPerimeter=0;" edge="1" parent="WIyWlLk6GJQsqaUBKTNV-1" target="akVVTmRAwVwX4ofUZlia-46">
          <mxGeometry width="50" height="50" relative="1" as="geometry">
            <mxPoint x="1691" y="630" as="sourcePoint" />
            <mxPoint x="1741" y="580" as="targetPoint" />
          </mxGeometry>
        </mxCell>
        <mxCell id="akVVTmRAwVwX4ofUZlia-58" value="" style="endArrow=none;html=1;rounded=0;exitX=0.55;exitY=-0.008;exitDx=0;exitDy=0;exitPerimeter=0;" edge="1" parent="WIyWlLk6GJQsqaUBKTNV-1" source="akVVTmRAwVwX4ofUZlia-39" target="akVVTmRAwVwX4ofUZlia-46">
          <mxGeometry width="50" height="50" relative="1" as="geometry">
            <mxPoint x="1864" y="750" as="sourcePoint" />
            <mxPoint x="1911" y="740" as="targetPoint" />
          </mxGeometry>
        </mxCell>
        <mxCell id="akVVTmRAwVwX4ofUZlia-59" value="" style="endArrow=none;html=1;rounded=0;entryX=0;entryY=0.5;entryDx=0;entryDy=0;" edge="1" parent="WIyWlLk6GJQsqaUBKTNV-1" target="akVVTmRAwVwX4ofUZlia-41">
          <mxGeometry width="50" height="50" relative="1" as="geometry">
            <mxPoint x="1622" y="667" as="sourcePoint" />
            <mxPoint x="1771" y="690" as="targetPoint" />
          </mxGeometry>
        </mxCell>
        <mxCell id="akVVTmRAwVwX4ofUZlia-60" value="Exame" style="swimlane;fontStyle=0;childLayout=stackLayout;horizontal=1;startSize=30;horizontalStack=0;resizeParent=1;resizeParentMax=0;resizeLast=0;collapsible=1;marginBottom=0;whiteSpace=wrap;html=1;" vertex="1" parent="WIyWlLk6GJQsqaUBKTNV-1">
          <mxGeometry x="2001" y="740" width="140" height="140" as="geometry" />
        </mxCell>
        <mxCell id="akVVTmRAwVwX4ofUZlia-61" value="- codigo: Integer" style="text;strokeColor=none;fillColor=none;align=left;verticalAlign=middle;spacingLeft=4;spacingRight=4;overflow=hidden;points=[[0,0.5],[1,0.5]];portConstraint=eastwest;rotatable=0;whiteSpace=wrap;html=1;" vertex="1" parent="akVVTmRAwVwX4ofUZlia-60">
          <mxGeometry y="30" width="140" height="30" as="geometry" />
        </mxCell>
        <mxCell id="akVVTmRAwVwX4ofUZlia-62" value="- data: Date" style="text;strokeColor=none;fillColor=none;align=left;verticalAlign=middle;spacingLeft=4;spacingRight=4;overflow=hidden;points=[[0,0.5],[1,0.5]];portConstraint=eastwest;rotatable=0;whiteSpace=wrap;html=1;" vertex="1" parent="akVVTmRAwVwX4ofUZlia-60">
          <mxGeometry y="60" width="140" height="30" as="geometry" />
        </mxCell>
        <mxCell id="akVVTmRAwVwX4ofUZlia-63" value="- tipo: String&lt;div&gt;&lt;br&gt;&lt;/div&gt;&lt;div&gt;- resultado: String&lt;/div&gt;" style="text;strokeColor=none;fillColor=none;align=left;verticalAlign=middle;spacingLeft=4;spacingRight=4;overflow=hidden;points=[[0,0.5],[1,0.5]];portConstraint=eastwest;rotatable=0;whiteSpace=wrap;html=1;" vertex="1" parent="akVVTmRAwVwX4ofUZlia-60">
          <mxGeometry y="90" width="140" height="50" as="geometry" />
        </mxCell>
        <mxCell id="akVVTmRAwVwX4ofUZlia-64" value="exame: Exame" style="swimlane;fontStyle=0;childLayout=stackLayout;horizontal=1;startSize=30;horizontalStack=0;resizeParent=1;resizeParentMax=0;resizeLast=0;collapsible=1;marginBottom=0;whiteSpace=wrap;html=1;" vertex="1" parent="WIyWlLk6GJQsqaUBKTNV-1">
          <mxGeometry x="988" y="700" width="140" height="140" as="geometry" />
        </mxCell>
        <mxCell id="akVVTmRAwVwX4ofUZlia-65" value="- codigo: 1" style="text;strokeColor=none;fillColor=none;align=left;verticalAlign=middle;spacingLeft=4;spacingRight=4;overflow=hidden;points=[[0,0.5],[1,0.5]];portConstraint=eastwest;rotatable=0;whiteSpace=wrap;html=1;" vertex="1" parent="akVVTmRAwVwX4ofUZlia-64">
          <mxGeometry y="30" width="140" height="30" as="geometry" />
        </mxCell>
        <mxCell id="akVVTmRAwVwX4ofUZlia-66" value="- data: 16/10/2023" style="text;strokeColor=none;fillColor=none;align=left;verticalAlign=middle;spacingLeft=4;spacingRight=4;overflow=hidden;points=[[0,0.5],[1,0.5]];portConstraint=eastwest;rotatable=0;whiteSpace=wrap;html=1;" vertex="1" parent="akVVTmRAwVwX4ofUZlia-64">
          <mxGeometry y="60" width="140" height="30" as="geometry" />
        </mxCell>
        <mxCell id="akVVTmRAwVwX4ofUZlia-67" value="- tipo: BiÃ³psia&lt;div&gt;&lt;br&gt;&lt;/div&gt;&lt;div&gt;- resultado: &quot;negativo&#39;&lt;/div&gt;" style="text;strokeColor=none;fillColor=none;align=left;verticalAlign=middle;spacingLeft=4;spacingRight=4;overflow=hidden;points=[[0,0.5],[1,0.5]];portConstraint=eastwest;rotatable=0;whiteSpace=wrap;html=1;" vertex="1" parent="akVVTmRAwVwX4ofUZlia-64">
          <mxGeometry y="90" width="140" height="50" as="geometry" />
        </mxCell>
        <mxCell id="akVVTmRAwVwX4ofUZlia-68" value="" style="endArrow=none;html=1;rounded=0;exitX=1;exitY=-0.067;exitDx=0;exitDy=0;exitPerimeter=0;entryX=0;entryY=0.9;entryDx=0;entryDy=0;entryPerimeter=0;" edge="1" parent="WIyWlLk6GJQsqaUBKTNV-1" source="akVVTmRAwVwX4ofUZlia-41" target="akVVTmRAwVwX4ofUZlia-61">
          <mxGeometry width="50" height="50" relative="1" as="geometry">
            <mxPoint x="2051" y="740" as="sourcePoint" />
            <mxPoint x="2101" y="690" as="targetPoint" />
          </mxGeometry>
        </mxCell>
        <mxCell id="akVVTmRAwVwX4ofUZlia-69" value="1" style="resizable=0;align=left;verticalAlign=bottom;labelBackgroundColor=none;fontSize=12;" connectable="0" vertex="1" parent="WIyWlLk6GJQsqaUBKTNV-1">
          <mxGeometry x="1661" y="690" as="geometry" />
        </mxCell>
        <mxCell id="akVVTmRAwVwX4ofUZlia-70" value="1" style="resizable=0;align=left;verticalAlign=bottom;labelBackgroundColor=none;fontSize=12;" connectable="0" vertex="1" parent="WIyWlLk6GJQsqaUBKTNV-1">
          <mxGeometry x="1671" y="650" as="geometry">
            <mxPoint x="205" y="8" as="offset" />
          </mxGeometry>
        </mxCell>
        <mxCell id="akVVTmRAwVwX4ofUZlia-71" value="0..*" style="resizable=0;align=left;verticalAlign=bottom;labelBackgroundColor=none;fontSize=12;" connectable="0" vertex="1" parent="WIyWlLk6GJQsqaUBKTNV-1">
          <mxGeometry x="1841" y="670" as="geometry">
            <mxPoint x="-76" y="115" as="offset" />
          </mxGeometry>
        </mxCell>
        <mxCell id="akVVTmRAwVwX4ofUZlia-72" value="0..*" style="resizable=0;align=left;verticalAlign=bottom;labelBackgroundColor=none;fontSize=12;" connectable="0" vertex="1" parent="WIyWlLk6GJQsqaUBKTNV-1">
          <mxGeometry x="1951" y="625" as="geometry">
            <mxPoint x="-76" y="115" as="offset" />
          </mxGeometry>
        </mxCell>
        <mxCell id="akVVTmRAwVwX4ofUZlia-73" value="0..*" style="resizable=0;align=left;verticalAlign=bottom;labelBackgroundColor=none;fontSize=12;" connectable="0" vertex="1" parent="WIyWlLk6GJQsqaUBKTNV-1">
          <mxGeometry x="2051" y="680" as="geometry">
            <mxPoint x="-76" y="115" as="offset" />
          </mxGeometry>
        </mxCell>
        <mxCell id="akVVTmRAwVwX4ofUZlia-74" value="1" style="resizable=0;align=left;verticalAlign=bottom;labelBackgroundColor=none;fontSize=12;" connectable="0" vertex="1" parent="WIyWlLk6GJQsqaUBKTNV-1">
          <mxGeometry x="1931" y="800" as="geometry" />
        </mxCell>
        <mxCell id="akVVTmRAwVwX4ofUZlia-75" value="Atendente" style="swimlane;fontStyle=0;childLayout=stackLayout;horizontal=1;startSize=30;horizontalStack=0;resizeParent=1;resizeParentMax=0;resizeLast=0;collapsible=1;marginBottom=0;whiteSpace=wrap;html=1;" vertex="1" parent="WIyWlLk6GJQsqaUBKTNV-1">
          <mxGeometry x="2021" y="360" width="140" height="90" as="geometry" />
        </mxCell>
        <mxCell id="akVVTmRAwVwX4ofUZlia-84" value="" style="endArrow=blockThin;html=1;rounded=0;entryX=0.5;entryY=0;entryDx=0;entryDy=0;endFill=0;" edge="1" parent="akVVTmRAwVwX4ofUZlia-75" target="akVVTmRAwVwX4ofUZlia-79">
          <mxGeometry width="50" height="50" relative="1" as="geometry">
            <mxPoint x="70" y="91" as="sourcePoint" />
            <mxPoint x="120" y="41" as="targetPoint" />
          </mxGeometry>
        </mxCell>
        <mxCell id="akVVTmRAwVwX4ofUZlia-76" value="- salario: Double" style="text;strokeColor=none;fillColor=none;align=left;verticalAlign=middle;spacingLeft=4;spacingRight=4;overflow=hidden;points=[[0,0.5],[1,0.5]];portConstraint=eastwest;rotatable=0;whiteSpace=wrap;html=1;" vertex="1" parent="akVVTmRAwVwX4ofUZlia-75">
          <mxGeometry y="30" width="140" height="60" as="geometry" />
        </mxCell>
        <mxCell id="akVVTmRAwVwX4ofUZlia-79" value="Pessoa" style="swimlane;fontStyle=0;childLayout=stackLayout;horizontal=1;startSize=30;horizontalStack=0;resizeParent=1;resizeParentMax=0;resizeLast=0;collapsible=1;marginBottom=0;whiteSpace=wrap;html=1;" vertex="1" parent="WIyWlLk6GJQsqaUBKTNV-1">
          <mxGeometry x="2021" y="550" width="140" height="120" as="geometry" />
        </mxCell>
        <mxCell id="akVVTmRAwVwX4ofUZlia-80" value="- codigo: Integer" style="text;strokeColor=none;fillColor=none;align=left;verticalAlign=middle;spacingLeft=4;spacingRight=4;overflow=hidden;points=[[0,0.5],[1,0.5]];portConstraint=eastwest;rotatable=0;whiteSpace=wrap;html=1;" vertex="1" parent="akVVTmRAwVwX4ofUZlia-79">
          <mxGeometry y="30" width="140" height="30" as="geometry" />
        </mxCell>
        <mxCell id="akVVTmRAwVwX4ofUZlia-81" value="- nome: String" style="text;strokeColor=none;fillColor=none;align=left;verticalAlign=middle;spacingLeft=4;spacingRight=4;overflow=hidden;points=[[0,0.5],[1,0.5]];portConstraint=eastwest;rotatable=0;whiteSpace=wrap;html=1;" vertex="1" parent="akVVTmRAwVwX4ofUZlia-79">
          <mxGeometry y="60" width="140" height="30" as="geometry" />
        </mxCell>
        <mxCell id="akVVTmRAwVwX4ofUZlia-82" value="- telefone: String" style="text;strokeColor=none;fillColor=none;align=left;verticalAlign=middle;spacingLeft=4;spacingRight=4;overflow=hidden;points=[[0,0.5],[1,0.5]];portConstraint=eastwest;rotatable=0;whiteSpace=wrap;html=1;" vertex="1" parent="akVVTmRAwVwX4ofUZlia-79">
          <mxGeometry y="90" width="140" height="30" as="geometry" />
        </mxCell>
        <mxCell id="akVVTmRAwVwX4ofUZlia-85" value="" style="endArrow=blockThin;html=1;rounded=0;entryX=0;entryY=0.5;entryDx=0;entryDy=0;endFill=0;" edge="1" parent="WIyWlLk6GJQsqaUBKTNV-1" source="akVVTmRAwVwX4ofUZlia-46" target="akVVTmRAwVwX4ofUZlia-81">
          <mxGeometry width="50" height="50" relative="1" as="geometry">
            <mxPoint x="1941" y="630" as="sourcePoint" />
            <mxPoint x="1991" y="580" as="targetPoint" />
          </mxGeometry>
        </mxCell>
        <mxCell id="akVVTmRAwVwX4ofUZlia-86" value="Atenndente" style="swimlane;fontStyle=0;childLayout=stackLayout;horizontal=1;startSize=30;horizontalStack=0;resizeParent=1;resizeParentMax=0;resizeLast=0;collapsible=1;marginBottom=0;whiteSpace=wrap;html=1;" vertex="1" parent="WIyWlLk6GJQsqaUBKTNV-1">
          <mxGeometry x="988" y="300" width="140" height="150" as="geometry" />
        </mxCell>
        <mxCell id="akVVTmRAwVwX4ofUZlia-87" value="- codigo: 1" style="text;strokeColor=none;fillColor=none;align=left;verticalAlign=middle;spacingLeft=4;spacingRight=4;overflow=hidden;points=[[0,0.5],[1,0.5]];portConstraint=eastwest;rotatable=0;whiteSpace=wrap;html=1;" vertex="1" parent="akVVTmRAwVwX4ofUZlia-86">
          <mxGeometry y="30" width="140" height="30" as="geometry" />
        </mxCell>
        <mxCell id="akVVTmRAwVwX4ofUZlia-88" value="- nome: Kellen" style="text;strokeColor=none;fillColor=none;align=left;verticalAlign=middle;spacingLeft=4;spacingRight=4;overflow=hidden;points=[[0,0.5],[1,0.5]];portConstraint=eastwest;rotatable=0;whiteSpace=wrap;html=1;" vertex="1" parent="akVVTmRAwVwX4ofUZlia-86">
          <mxGeometry y="60" width="140" height="30" as="geometry" />
        </mxCell>
        <mxCell id="akVVTmRAwVwX4ofUZlia-89" value="- salario: 1500&lt;div&gt;&lt;br&gt;&lt;/div&gt;&lt;div&gt;- telefone: 34998746&lt;/div&gt;" style="text;strokeColor=none;fillColor=none;align=left;verticalAlign=middle;spacingLeft=4;spacingRight=4;overflow=hidden;points=[[0,0.5],[1,0.5]];portConstraint=eastwest;rotatable=0;whiteSpace=wrap;html=1;" vertex="1" parent="akVVTmRAwVwX4ofUZlia-86">
          <mxGeometry y="90" width="140" height="60" as="geometry" />
        </mxCell>
        <mxCell id="akVVTmRAwVwX4ofUZlia-90" value="" style="endArrow=none;html=1;rounded=0;exitX=0.981;exitY=0.038;exitDx=0;exitDy=0;exitPerimeter=0;" edge="1" parent="WIyWlLk6GJQsqaUBKTNV-1" source="zkfFHV4jXpPFQw0GAbJ--19" target="zkfFHV4jXpPFQw0GAbJ--14">
          <mxGeometry width="50" height="50" relative="1" as="geometry">
            <mxPoint x="481" y="404" as="sourcePoint" />
            <mxPoint x="531" y="354" as="targetPoint" />
          </mxGeometry>
        </mxCell>
        <mxCell id="akVVTmRAwVwX4ofUZlia-91" value="" style="endArrow=diamond;html=1;rounded=0;entryX=0.011;entryY=0;entryDx=0;entryDy=0;entryPerimeter=0;endFill=1;" edge="1" parent="WIyWlLk6GJQsqaUBKTNV-1" target="akVVTmRAwVwX4ofUZlia-15">
          <mxGeometry width="50" height="50" relative="1" as="geometry">
            <mxPoint x="701" y="380" as="sourcePoint" />
            <mxPoint x="751" y="330" as="targetPoint" />
          </mxGeometry>
        </mxCell>
        <mxCell id="akVVTmRAwVwX4ofUZlia-92" value="" style="endArrow=none;html=1;rounded=0;entryX=0.029;entryY=-0.033;entryDx=0;entryDy=0;entryPerimeter=0;" edge="1" parent="WIyWlLk6GJQsqaUBKTNV-1" target="akVVTmRAwVwX4ofUZlia-54">
          <mxGeometry width="50" height="50" relative="1" as="geometry">
            <mxPoint x="701" y="590" as="sourcePoint" />
            <mxPoint x="751" y="540" as="targetPoint" />
          </mxGeometry>
        </mxCell>
        <mxCell id="akVVTmRAwVwX4ofUZlia-93" value="" style="endArrow=none;html=1;rounded=0;exitX=0;exitY=0.5;exitDx=0;exitDy=0;entryX=0.506;entryY=0.9;entryDx=0;entryDy=0;entryPerimeter=0;" edge="1" parent="WIyWlLk6GJQsqaUBKTNV-1" source="akVVTmRAwVwX4ofUZlia-49" target="akVVTmRAwVwX4ofUZlia-30">
          <mxGeometry width="50" height="50" relative="1" as="geometry">
            <mxPoint x="571" y="670" as="sourcePoint" />
            <mxPoint x="621" y="620" as="targetPoint" />
          </mxGeometry>
        </mxCell>
        <mxCell id="akVVTmRAwVwX4ofUZlia-94" value="" style="endArrow=none;html=1;rounded=0;" edge="1" parent="WIyWlLk6GJQsqaUBKTNV-1">
          <mxGeometry width="50" height="50" relative="1" as="geometry">
            <mxPoint x="861" y="700" as="sourcePoint" />
            <mxPoint x="861" y="650" as="targetPoint" />
          </mxGeometry>
        </mxCell>
        <mxCell id="akVVTmRAwVwX4ofUZlia-96" value="" style="endArrow=none;html=1;rounded=0;entryX=0.021;entryY=0.28;entryDx=0;entryDy=0;entryPerimeter=0;" edge="1" parent="WIyWlLk6GJQsqaUBKTNV-1" target="akVVTmRAwVwX4ofUZlia-67">
          <mxGeometry width="50" height="50" relative="1" as="geometry">
            <mxPoint x="931" y="804" as="sourcePoint" />
            <mxPoint x="981" y="740" as="targetPoint" />
          </mxGeometry>
        </mxCell>
        <mxCell id="akVVTmRAwVwX4ofUZlia-97" value="0*.." style="resizable=0;align=left;verticalAlign=bottom;labelBackgroundColor=none;fontSize=12;" connectable="0" vertex="1" parent="WIyWlLk6GJQsqaUBKTNV-1">
          <mxGeometry x="511" y="380" as="geometry" />
        </mxCell>
        <mxCell id="akVVTmRAwVwX4ofUZlia-98" value="1..*" style="resizable=0;align=left;verticalAlign=bottom;labelBackgroundColor=none;fontSize=12;" connectable="0" vertex="1" parent="WIyWlLk6GJQsqaUBKTNV-1">
          <mxGeometry x="701" y="380" as="geometry" />
        </mxCell>
        <mxCell id="akVVTmRAwVwX4ofUZlia-100" value="1" style="resizable=0;align=left;verticalAlign=bottom;labelBackgroundColor=none;fontSize=12;" connectable="0" vertex="1" parent="WIyWlLk6GJQsqaUBKTNV-1">
          <mxGeometry x="471" y="390" as="geometry">
            <mxPoint x="285" y="16" as="offset" />
          </mxGeometry>
        </mxCell>
        <mxCell id="akVVTmRAwVwX4ofUZlia-83" value="" style="endArrow=blockThin;html=1;rounded=0;entryX=0;entryY=0.5;entryDx=0;entryDy=0;endFill=0;exitX=0.459;exitY=0.967;exitDx=0;exitDy=0;exitPerimeter=0;" edge="1" parent="WIyWlLk6GJQsqaUBKTNV-1" source="akVVTmRAwVwX4ofUZlia-10" target="akVVTmRAwVwX4ofUZlia-80">
          <mxGeometry width="50" height="50" relative="1" as="geometry">
            <mxPoint x="1871" y="480" as="sourcePoint" />
            <mxPoint x="1921" y="430" as="targetPoint" />
          </mxGeometry>
        </mxCell>
        <mxCell id="akVVTmRAwVwX4ofUZlia-101" value="1" style="resizable=0;align=left;verticalAlign=bottom;labelBackgroundColor=none;fontSize=12;" connectable="0" vertex="1" parent="WIyWlLk6GJQsqaUBKTNV-1">
          <mxGeometry x="1701" y="635" as="geometry">
            <mxPoint x="-989" y="-51" as="offset" />
          </mxGeometry>
        </mxCell>
        <mxCell id="akVVTmRAwVwX4ofUZlia-102" value="0..*" style="resizable=0;align=left;verticalAlign=bottom;labelBackgroundColor=none;fontSize=12;" connectable="0" vertex="1" parent="WIyWlLk6GJQsqaUBKTNV-1">
          <mxGeometry x="831" y="470" as="geometry">
            <mxPoint x="-76" y="115" as="offset" />
          </mxGeometry>
        </mxCell>
        <mxCell id="akVVTmRAwVwX4ofUZlia-103" value="1" style="resizable=0;align=left;verticalAlign=bottom;labelBackgroundColor=none;fontSize=12;" connectable="0" vertex="1" parent="WIyWlLk6GJQsqaUBKTNV-1">
          <mxGeometry x="1671" y="700" as="geometry">
            <mxPoint x="-1065" y="-56" as="offset" />
          </mxGeometry>
        </mxCell>
        <mxCell id="akVVTmRAwVwX4ofUZlia-104" value="0..*" style="resizable=0;align=left;verticalAlign=bottom;labelBackgroundColor=none;fontSize=12;" connectable="0" vertex="1" parent="WIyWlLk6GJQsqaUBKTNV-1">
          <mxGeometry x="841" y="670" as="geometry">
            <mxPoint x="-76" y="115" as="offset" />
          </mxGeometry>
        </mxCell>
        <mxCell id="akVVTmRAwVwX4ofUZlia-105" value="1" style="resizable=0;align=left;verticalAlign=bottom;labelBackgroundColor=none;fontSize=12;" connectable="0" vertex="1" parent="WIyWlLk6GJQsqaUBKTNV-1">
          <mxGeometry x="661" y="660" as="geometry">
            <mxPoint x="205" y="8" as="offset" />
          </mxGeometry>
        </mxCell>
        <mxCell id="akVVTmRAwVwX4ofUZlia-106" value="0..*" style="resizable=0;align=left;verticalAlign=bottom;labelBackgroundColor=none;fontSize=12;" connectable="0" vertex="1" parent="WIyWlLk6GJQsqaUBKTNV-1">
          <mxGeometry x="941" y="585" as="geometry">
            <mxPoint x="-76" y="115" as="offset" />
          </mxGeometry>
        </mxCell>
        <mxCell id="akVVTmRAwVwX4ofUZlia-107" value="0..*" style="resizable=0;align=left;verticalAlign=bottom;labelBackgroundColor=none;fontSize=12;" connectable="0" vertex="1" parent="WIyWlLk6GJQsqaUBKTNV-1">
          <mxGeometry x="1041" y="690" as="geometry">
            <mxPoint x="-76" y="115" as="offset" />
          </mxGeometry>
        </mxCell>
        <mxCell id="akVVTmRAwVwX4ofUZlia-108" value="1" style="resizable=0;align=left;verticalAlign=bottom;labelBackgroundColor=none;fontSize=12;" connectable="0" vertex="1" parent="WIyWlLk6GJQsqaUBKTNV-1">
          <mxGeometry x="1941" y="840" as="geometry">
            <mxPoint x="-1005" y="-41" as="offset" />
          </mxGeometry>
        </mxCell>
      </root>
    </mxGraphModel>
  </diagram>
</mxfile>
